:SAMPLES-PER-SECOND 30
:FULLY-SPECIFIED
:DEGREES
277
root  13.9755 39.9292 8.48956 -177.941 82.6737 -176.066
RightUpLeg  -9.16051 -14.4786 -2.8573
RightLeg  18.0098 -4.70185 2.42503
RightFoot  -4.85531 0.0977647 -2.30799
RightToes  0.000482159 0.542163 -0.142577
Spine  15.9719 -1.28095 9.623
Spine1  7.03344 0.968196 -2.18445
HEad  0.523408 19.3178 -11.3986
LeftShoulder1  7.87693 -11.922 -44.4712
LeftArm  -16.3988 19.2106 -19.0248
LeftForeArm  25.9601 -29.5637 -4.99
LeftHand  -0.25398 0.0180481 5.50724
RightShoulder  4.78664 8.30443 34.5807
RightArm  -1.54381 -20.0944 35.3441
RightForeArm  3.39949 17.7003 5.57668
RightHand  -0.863036 0.64778 -16.6313
LeftUpLeg  -3.98639 -0.642233 6.59734
LeftLeg  36.2513 4.5442 3.92999
LeftFoot  -7.00026 0.185402 -3.71242
LeftToes  1.06248e-005 4.65855e-005 -8.18498e-006
278
root  12.9333 39.854 8.03429 -176.348 83.7241 -175.229
RightUpLeg  -12.2453 -14.9851 -2.43324
RightLeg  18.2946 -3.21614 1.73788
RightFoot  -3.07161 0.14322 -2.25874
RightToes  0.000482159 0.542163 -0.142577
Spine  15.7409 -1.52407 8.39349
Spine1  6.26387 0.123281 -0.929409
HEad  -0.544859 19.4846 -11.657
LeftShoulder1  7.63256 -11.5806 -44.044
LeftArm  -17.9367 19.1608 -19.1937
LeftForeArm  26.3815 -30.2256 -5.12065
LeftHand  -0.25398 0.0180481 5.50724
RightShoulder  4.60865 8.02765 34.0172
RightArm  -5.37132 -21.1058 34.137
RightForeArm  3.14834 16.8086 5.57204
RightHand  -0.907239 0.930813 -16.7201
LeftUpLeg  0.0624373 1.39898 7.17775
LeftLeg  32.135 3.79467 2.91827
LeftFoot  -7.68108 0.274663 -7.48004
LeftToes  1.06248e-005 4.65855e-005 -8.18498e-006
279
root  11.8472 39.8101 7.55765 -175.815 84.7998 -175.357
RightUpLeg  -14.8013 -14.9304 -2.29517
RightLeg  17.6248 -2.29159 1.36639
RightFoot  -0.399902 0.22976 -2.41793
RightToes  0.000482159 0.542163 -0.142577
Spine  16.0603 -1.60524 7.1681
Spine1  5.40435 -0.464687 -0.0791385
HEad  -2.52223 19.1562 -11.6684
LeftShoulder1  7.3727 -11.3266 -43.2314
LeftArm  -19.2076 18.7368 -19.892
LeftForeArm  26.8865 -30.857 -5.24123
LeftHand  -0.25398 0.0180481 5.50724
RightShoulder  4.47164 7.87449 33.3565
RightArm  -8.92919 -21.8551 32.7474
RightForeArm  1.28352 16.8156 5.36655
RightHand  -0.972528 1.28553 -16.9922
LeftUpLeg  4.23605 4.26488 7.23813
LeftLeg  24.8999 2.65541 1.73569
LeftFoot  -10.5666 0.142528 -11.2709
LeftToes  1.06248e-005 4.65855e-005 -8.18498e-006
280
root  10.7183 39.7969 7.06091 -176.999 85.726 -177.053
RightUpLeg  -16.4101 -14.4548 -2.75096
RightLeg  15.6184 -1.8252 1.59099
RightFoot  2.71195 0.275617 -2.10591
RightToes  0.000482159 0.542163 -0.142577
Spine  16.7115 -1.51059 5.91123
Spine1  4.77016 -0.800319 0.417742
HEad  -5.14595 18.2072 -11.1895
LeftShoulder1  7.23106 -11.2782 -42.4964
LeftArm  -19.9479 17.6991 -20.5151
LeftForeArm  27.6277 -31.4514 -5.34147
LeftHand  -0.25398 0.0180481 5.50724
RightShoulder  4.37264 7.78492 32.7926
RightArm  -11.9085 -21.8088 31.0815
RightForeArm  -0.295479 16.7958 5.18461
RightHand  -1.0679 1.86003 -17.2148
LeftUpLeg  7.40566 7.67312 6.75249
LeftLeg  16.7566 1.37868 0.546576
LeftFoot  -14.0965 -0.158309 -10.4921
LeftToes  1.06248e-005 4.65855e-005 -8.18498e-006
281
root  9.55674 39.821 6.58679 176.449 86.2553 175.655
RightUpLeg  -17.571 -13.396 -4.04978
RightLeg  12.6032 -2.59304 2.06513
RightFoot  4.83047 0.107013 -0.518666
RightToes  0.000482159 0.542163 -0.142577
Spine  17.2847 -1.22477 3.98556
Spine1  4.26334 -1.06777 1.24769
HEad  -7.7035 16.6236 -10.0632
LeftShoulder1  7.20154 -11.3599 -42.0621
LeftArm  -20.1308 16.3133 -20.7425
LeftForeArm  28.9027 -32.1439 -5.437
LeftHand  -0.25398 0.0180481 5.50724
RightShoulder  4.251 7.59787 32.3488
RightArm  -14.6323 -20.6745 29.3541
RightForeArm  -0.0861862 15.9239 4.99648
RightHand  -1.20685 2.69339 -17.4794
LeftUpLeg  7.94754 8.72926 5.44239
LeftLeg  11.265 2.44107 -0.908078
LeftFoot  -15.7661 -0.153683 -6.27049
LeftToes  1.06248e-005 4.65855e-005 -8.18498e-006
